<svg id="google_cloud-icon" xmlns="http://www.w3.org/2000/svg" width="195.51" height="157.263" viewBox="0 0 195.51 157.263">
  <path id="Path_11" data-name="Path 11" d="M108.328,49.724l6.262.107,17.015-17.015.825-7.209A76.428,76.428,0,0,0,7.83,62.738c1.857-1.3,5.829-.324,5.829-.324l34-5.59s1.747-2.893,2.633-2.749a42.353,42.353,0,0,1,58.036-4.384Z" transform="translate(16.089 -6.26)" fill="#ea4335"/>
  <path id="Path_12" data-name="Path 12" d="M108.681,49.792A76.594,76.594,0,0,0,85.6,12.593L61.509,36.687A42.4,42.4,0,0,1,77.354,69.74v4.252a21.243,21.243,0,0,1,0,42.487H34.867l-4.252,4.277v25.5l4.252,4.231H77.354A55.2,55.2,0,0,0,108.681,49.795Z" transform="translate(62.909 6.753)" fill="#4285f4"/>
  <path id="Path_13" data-name="Path 13" d="M40.538,81.91H83V47.879H40.538a21.052,21.052,0,0,1-8.746-1.9l-6.128,1.88L8.649,64.873,7.158,70.616A54.987,54.987,0,0,0,40.535,81.886Z" transform="translate(14.709 75.353)" fill="#34a853"/>
  <path id="Path_14" data-name="Path 14" d="M55.247,21.57a55.217,55.217,0,0,0-33.356,99.243L46.525,96.178A21.24,21.24,0,1,1,74.614,68.1L99.249,43.461a55.158,55.158,0,0,0-44-21.891Z" transform="translate(0 25.2)" fill="#fbbc05"/>
</svg>
